<svg xmlns="http://www.w3.org/2000/svg" width="46" height="44" viewBox="0 0 46 44">
    <defs>
        <style>
            .cls-1{fill:#313954}.cls-2{fill:#78849e}.cls-3{fill:#ffd609}
        </style>
    </defs>
    <g id="Camera_warning" data-name="Camera warning" transform="translate(-776 -201)">
        <path id="Subtraction_5" d="M22-1106a21.856 21.856 0 0 1-15.556-6.443A21.856 21.856 0 0 1 0-1128a21.857 21.857 0 0 1 6.444-15.557A21.855 21.855 0 0 1 22-1150a21.857 21.857 0 0 1 15.557 6.444A21.857 21.857 0 0 1 44-1128a21.757 21.757 0 0 1-2.439 10.078l-2.695-4.539a1.111 1.111 0 0 0-.958-.54h-.045a1.105 1.105 0 0 0-.907.539l-8.809 14.852a1.046 1.046 0 0 0-.119.772A22.042 22.042 0 0 1 22-1106z" class="cls-1" data-name="Subtraction 5" transform="translate(776 1351)"/>
        <g id="camera" transform="translate(769.037 195.367)">
            <path id="Path_24" d="M42.728 34.4a5.328 5.328 0 1 0 5.328 5.328 5.321 5.321 0 0 0-5.328-5.328zm0 9.2a3.872 3.872 0 1 1 3.872-3.872 3.881 3.881 0 0 1-3.872 3.872z" class="cls-2" data-name="Path 24" transform="translate(-13.928 -11.864)"/>
            <path id="Path_25" d="M33.346 16a5.212 5.212 0 0 1-9.093 0 13.018 13.018 0 0 0-3.268 22.59 2.767 2.767 0 0 0 1.74.568h12.149a2.767 2.767 0 0 0 1.74-.568A13.018 13.018 0 0 0 33.346 16zM28.8 35.074a7.21 7.21 0 1 1 7.21-7.21 7.216 7.216 0 0 1-7.21 7.21z" class="cls-2" data-name="Path 25"/>
            <circle id="Ellipse_22" cx=".497" cy=".497" r=".497" class="cls-2" data-name="Ellipse 22" transform="translate(28.303 27.366)"/>
        </g>
        <g id="noun_Warning_1166257_000000" transform="translate(797.995 -736.36)">
            <path id="Path_583" d="M15.963 966.361a.894.894 0 0 0-.732.435l-7.108 11.983a.846.846 0 0 0 0 .866.9.9 0 0 0 .772.432h14.218a.9.9 0 0 0 .772-.432.846.846 0 0 0 0-.866L16.773 966.8a.9.9 0 0 0-.81-.439zm.042 3.81a.952.952 0 0 1 .952.952l-.191 3.429a.762.762 0 0 1-1.524 0l-.19-3.429a.952.952 0 0 1 .953-.952zm0 5.715a.953.953 0 1 1-.952.952.953.953 0 0 1 .952-.952z" class="cls-3" data-name="Path 583"/>
        </g>
    </g>
</svg>
