<svg xmlns="http://www.w3.org/2000/svg" width="44" height="44" viewBox="0 0 44 44">
    <defs>
        <style>
            .cls-1{fill:#313954}.cls-2{fill:#78849e}
        </style>
    </defs>
    <g id="Camera_Default" data-name="Camera Default" transform="translate(-1125.163 -308.633)">
        <path id="Path_578" d="M22 0A22 22 0 1 1 0 22 22 22 0 0 1 22 0z" class="cls-1" data-name="Path 578" transform="translate(1125.163 308.633)"/>
        <g id="Camera">
            <path id="Camera-2" d="M356.09 224.792a2.77 2.77 0 0 1-1.741-.569 13.018 13.018 0 0 1 3.268-22.59 5.211 5.211 0 0 0 9.093 0 13.018 13.018 0 0 1 3.268 22.59 2.767 2.767 0 0 1-1.741.569zm-1.137-11.3a7.21 7.21 0 1 0 7.211-7.21 7.215 7.215 0 0 0-7.211 7.218zm1.883 0a5.328 5.328 0 1 1 5.328 5.328 5.32 5.32 0 0 1-5.328-5.32zm1.456 0a3.871 3.871 0 1 0 3.872-3.871 3.881 3.881 0 0 0-3.872 3.879zm3.374 0a.5.5 0 1 1 .5.5.5.5 0 0 1-.5-.492z" class="cls-2" data-name="Camera" transform="translate(784.837 117.367)"/>
        </g>
    </g>
</svg>
