<svg xmlns="http://www.w3.org/2000/svg" width="46" height="44" viewBox="0 0 46 44">
    <defs>
        <style>
            .cls-1{fill:#313954}.cls-2{fill:#78849e}.cls-3{fill:#f83a8a}
        </style>
    </defs>
    <g id="Camera_online" data-name="Camera online" transform="translate(-836 -201)">
        <path id="Subtraction_6" d="M22-1106a21.856 21.856 0 0 1-15.556-6.443A21.856 21.856 0 0 1 0-1128a21.857 21.857 0 0 1 6.444-15.557A21.855 21.855 0 0 1 22-1150a21.857 21.857 0 0 1 15.557 6.444A21.857 21.857 0 0 1 44-1128a22 22 0 0 1-1 6.581 7.955 7.955 0 0 0-3-.581 8.009 8.009 0 0 0-8 8 7.939 7.939 0 0 0 1.547 4.73A21.95 21.95 0 0 1 22-1106z" class="cls-1" data-name="Subtraction 6" transform="translate(836 1351)"/>
        <g id="camera" transform="translate(829.037 195.367)">
            <path id="Path_24" d="M42.728 34.4a5.328 5.328 0 1 0 5.328 5.328 5.321 5.321 0 0 0-5.328-5.328zm0 9.2a3.872 3.872 0 1 1 3.872-3.872 3.881 3.881 0 0 1-3.872 3.872z" class="cls-2" data-name="Path 24" transform="translate(-13.928 -11.864)"/>
            <path id="Path_25" d="M33.346 16a5.212 5.212 0 0 1-9.093 0 13.018 13.018 0 0 0-3.268 22.59 2.767 2.767 0 0 0 1.74.568h12.149a2.767 2.767 0 0 0 1.74-.568A13.018 13.018 0 0 0 33.346 16zM28.8 35.074a7.21 7.21 0 1 1 7.21-7.21 7.216 7.216 0 0 1-7.21 7.21z" class="cls-2" data-name="Path 25"/>
            <circle id="Ellipse_22" cx=".497" cy=".497" r=".497" class="cls-2" data-name="Ellipse 22" transform="translate(28.303 27.366)"/>
        </g>
        <g id="noun_Warning_538056_000000" transform="translate(870 231)">
            <path id="Path_584" d="M10.7 4.7a6 6 0 1 0 6 6 6 6 0 0 0-6-6zm0 9.841a.715.715 0 1 1 .715-.715.721.721 0 0 1-.715.715zm0-2.159c-.53 0-.954-4.026-.954-4.556a.961.961 0 0 1 .954-.967.95.95 0 0 1 .954.954c0 .529-.424 4.569-.954 4.569z" class="cls-3" data-name="Path 584" transform="translate(-4.7 -4.7)"/>
        </g>
    </g>
</svg>
