<svg xmlns="http://www.w3.org/2000/svg" width="14.937" height="16" viewBox="0 0 14.937 16">
    <defs>
        <style>
            .cls-1{fill:#78849e}
        </style>
    </defs>
    <path id="hide" d="M22.107 6.82L10.953 21.889l1.259.931L23.366 7.752zm2.333 7.64a7.606 7.606 0 0 0-3.027-3.083l-1.753 2.368a2.716 2.716 0 0 1-2.8 3.781l-1.26 1.708a8.74 8.74 0 0 0 1.563.145 8.18 8.18 0 0 0 7.281-4.2l.187-.36zm-11.535 3.8l1.754-2.36a2.716 2.716 0 0 1 2.8-3.781l1.264-1.708a8.74 8.74 0 0 0-1.563-.144 8.18 8.18 0 0 0-7.281 4.2l-.187.36.187.36a7.608 7.608 0 0 0 3.026 3.077z" class="cls-1" transform="translate(-9.691 -6.82)"/>
</svg>
