<svg xmlns="http://www.w3.org/2000/svg" width="28.642" height="28.642" viewBox="0 0 28.642 28.642">
    <defs>
        <style>
            .cls-1{fill:#313954}
        </style>
    </defs>
    <path id="Ruler" d="M19.921 12.665L7.513.258a.83.83 0 0 0-1.2 0L.258 6.311a.83.83 0 0 0 0 1.2L1.8 9.059l2.1-2.1a.85.85 0 1 1 1.2 1.2l-2.1 2.1.859.859 3.483-3.476a.85.85 0 1 1 1.2 1.2l-3.476 3.48.859.859 2.1-2.1a.85.85 0 1 1 1.2 1.2l-2.1 2.1.859.859 3.478-3.478a.85.85 0 0 1 1.2 1.2l-3.474 3.482.859.859 2.1-2.1a.85.85 0 0 1 1.2 1.2l-2.1 2.1 1.546 1.546a.83.83 0 0 0 1.2 0L20.05 14a1.154 1.154 0 0 0-.129-1.335z" class="cls-1" transform="rotate(45 7.18 17.334)"/>
</svg>
