<svg xmlns="http://www.w3.org/2000/svg" width="44" height="44" viewBox="0 0 44 44">
    <defs>
        <style>
            .cls-1{fill:#313954}.cls-2{fill:#78849e;fill-rule:evenodd}
        </style>
    </defs>
    <g id="Radar_Default" data-name="Radar Default" transform="translate(-1001 -347)">
        <g id="Group_33" data-name="Group 33" transform="translate(-11 -17)">
            <circle id="Ellipse_18" cx="22" cy="22" r="22" class="cls-1" data-name="Ellipse 18" transform="translate(1012 364)"/>
            <g id="radar">
                <path id="radar-2" d="M22.714 6.65a11.393 11.393 0 1 0 1.7 15.51.834.834 0 0 1 1.332 1A13.061 13.061 0 1 1 23.9 5.468l.806-.806a.889.889 0 0 1 1.254 1.257L17.381 14.5a2.221 2.221 0 1 1-1.258-1.258l2.638-2.642a5.836 5.836 0 1 0 2.386 4.708.834.834 0 1 1 1.667 0 7.5 7.5 0 1 1-2.864-5.9zm4.268 13.107a1.667 1.667 0 1 1 1.668-1.667 1.667 1.667 0 0 1-1.667 1.667z" class="cls-2" data-name="radar" transform="translate(1018.55 370.55)"/>
            </g>
        </g>
    </g>
</svg>
