<svg xmlns="http://www.w3.org/2000/svg" width="46" height="44" viewBox="0 0 46 44">
    <defs>
        <style>
            .cls-1{fill:#313954}.cls-2{fill:#78849e;fill-rule:evenodd}.cls-3{fill:#ffd609}
        </style>
    </defs>
    <g id="Radar_warning" data-name="Radar warning" transform="translate(-776 -201)">
        <path id="Subtraction_8" d="M22-1106a21.856 21.856 0 0 1-15.556-6.443A21.856 21.856 0 0 1 0-1128a21.857 21.857 0 0 1 6.444-15.557A21.855 21.855 0 0 1 22-1150a21.857 21.857 0 0 1 15.557 6.444A21.857 21.857 0 0 1 44-1128a21.757 21.757 0 0 1-2.439 10.078l-2.695-4.539a1.111 1.111 0 0 0-.958-.54h-.045a1.105 1.105 0 0 0-.907.539l-8.809 14.852a1.046 1.046 0 0 0-.119.772A22.042 22.042 0 0 1 22-1106z" class="cls-1" data-name="Subtraction 8" transform="translate(776 1351)"/>
        <g id="radar" transform="translate(-236 -163)">
            <path id="radar-2" d="M22.714 6.65a11.393 11.393 0 1 0 1.7 15.51.834.834 0 0 1 1.332 1A13.061 13.061 0 1 1 23.9 5.468l.806-.806a.889.889 0 0 1 1.254 1.257L17.381 14.5a2.221 2.221 0 1 1-1.258-1.258l2.638-2.642a5.836 5.836 0 1 0 2.386 4.708.834.834 0 1 1 1.667 0 7.5 7.5 0 1 1-2.864-5.9zm4.268 13.107a1.667 1.667 0 1 1 1.668-1.667 1.667 1.667 0 0 1-1.667 1.667z" class="cls-2" data-name="radar" transform="translate(1018.55 370.55)"/>
        </g>
        <g id="noun_Warning_1166257_000000" transform="translate(797.995 -736.36)">
            <path id="Path_583" d="M15.963 966.361a.894.894 0 0 0-.732.435l-7.108 11.983a.846.846 0 0 0 0 .866.9.9 0 0 0 .772.432h14.218a.9.9 0 0 0 .772-.432.846.846 0 0 0 0-.866L16.773 966.8a.9.9 0 0 0-.81-.439zm.042 3.81a.952.952 0 0 1 .952.952l-.191 3.429a.762.762 0 0 1-1.524 0l-.19-3.429a.952.952 0 0 1 .953-.952zm0 5.715a.953.953 0 1 1-.952.952.953.953 0 0 1 .952-.952z" class="cls-3" data-name="Path 583"/>
        </g>
    </g>
</svg>
