<svg xmlns="http://www.w3.org/2000/svg" width="46" height="44" viewBox="0 0 46 44">
    <defs>
        <style>
            .cls-1{fill:#313954}.cls-2{fill:#78849e;fill-rule:evenodd}.cls-3{fill:#f83a8a}
        </style>
    </defs>
    <g id="Radar_error" data-name="Radar error" transform="translate(-836 -201)">
        <path id="Subtraction_7" d="M22-1106a21.856 21.856 0 0 1-15.556-6.443A21.856 21.856 0 0 1 0-1128a21.857 21.857 0 0 1 6.444-15.557A21.855 21.855 0 0 1 22-1150a21.857 21.857 0 0 1 15.557 6.444A21.857 21.857 0 0 1 44-1128a22 22 0 0 1-1 6.581 7.955 7.955 0 0 0-3-.581 8.009 8.009 0 0 0-8 8 7.939 7.939 0 0 0 1.547 4.73A21.95 21.95 0 0 1 22-1106z" class="cls-1" data-name="Subtraction 7" transform="translate(836 1351)"/>
        <g id="radar" transform="translate(-176 -163)">
            <path id="radar-2" d="M22.714 6.65a11.393 11.393 0 1 0 1.7 15.51.834.834 0 0 1 1.332 1A13.061 13.061 0 1 1 23.9 5.468l.806-.806a.889.889 0 0 1 1.254 1.257L17.381 14.5a2.221 2.221 0 1 1-1.258-1.258l2.638-2.642a5.836 5.836 0 1 0 2.386 4.708.834.834 0 1 1 1.667 0 7.5 7.5 0 1 1-2.864-5.9zm4.268 13.107a1.667 1.667 0 1 1 1.668-1.667 1.667 1.667 0 0 1-1.667 1.667z" class="cls-2" data-name="radar" transform="translate(1018.55 370.55)"/>
        </g>
        <g id="noun_Warning_538056_000000" transform="translate(870 231)">
            <path id="Path_584" d="M10.7 4.7a6 6 0 1 0 6 6 6 6 0 0 0-6-6zm0 9.841a.715.715 0 1 1 .715-.715.721.721 0 0 1-.715.715zm0-2.159c-.53 0-.954-4.026-.954-4.556a.961.961 0 0 1 .954-.967.95.95 0 0 1 .954.954c0 .529-.424 4.569-.954 4.569z" class="cls-3" data-name="Path 584" transform="translate(-4.7 -4.7)"/>
        </g>
    </g>
</svg>
